<svg width="26" height="30" viewBox="0 0 26 30" fill="none" xmlns="http://www.w3.org/2000/svg">
<path d="M10.3333 16.6667L7.66667 19.3333M13 28.6667C13 28.6667 1 23.3333 1 14V6L13 2L25 6V14C25 23.3333 13 28.6667 13 28.6667ZM13 18C13.5253 18 14.0454 17.8965 14.5307 17.6955C15.016 17.4945 15.457 17.1999 15.8284 16.8284C16.1999 16.457 16.4945 16.016 16.6955 15.5307C16.8965 15.0454 17 14.5253 17 14C17 13.4747 16.8965 12.9546 16.6955 12.4693C16.4945 11.984 16.1999 11.543 15.8284 11.1716C15.457 10.8001 15.016 10.5055 14.5307 10.3045C14.0454 10.1035 13.5253 10 13 10C11.9391 10 10.9217 10.4214 10.1716 11.1716C9.42143 11.9217 9 12.9391 9 14C9 15.0609 9.42143 16.0783 10.1716 16.8284C10.9217 17.5786 11.9391 18 13 18V18ZM13 10V6V10ZM13 22V18V22ZM5 14H9H5ZM17 14H21H17ZM7.66667 8.66667L10.3333 11.3333L7.66667 8.66667ZM15.6667 16.6667L18.3333 19.3333L15.6667 16.6667ZM18.3333 8.66667L15.6667 11.3333L18.3333 8.66667Z" stroke="#333333" stroke-width="2"/>
</svg>
