<svg width="56" height="64" viewBox="0 0 56 64" fill="none" xmlns="http://www.w3.org/2000/svg">
<path d="M16.3057 30.1765V25.3935C16.3057 24.6011 16.9482 23.9586 17.7406 23.9586H22.5237C23.3161 23.9586 23.9586 24.6011 23.9586 25.3935V30.1765C23.9586 30.9689 23.3161 31.6114 22.5237 31.6114H17.7406C16.9482 31.6114 16.3057 30.9689 16.3057 30.1765ZM33.0463 31.6114H37.8294C38.6218 31.6114 39.2643 30.9689 39.2643 30.1765V25.3935C39.2643 24.6011 38.6218 23.9586 37.8294 23.9586H33.0463C32.2539 23.9586 31.6114 24.6011 31.6114 25.3935V30.1765C31.6114 30.9689 32.2539 31.6114 33.0463 31.6114ZM23.9586 41.6558V36.8728C23.9586 36.0803 23.3161 35.4379 22.5237 35.4379H17.7406C16.9482 35.4379 16.3057 36.0803 16.3057 36.8728V41.6558C16.3057 42.4482 16.9482 43.0907 17.7406 43.0907H22.5237C23.3161 43.0907 23.9586 42.4482 23.9586 41.6558ZM33.0463 43.0907H37.8294C38.6218 43.0907 39.2643 42.4482 39.2643 41.6558V36.8728C39.2643 36.0803 38.6218 35.4379 37.8294 35.4379H33.0463C32.2539 35.4379 31.6114 36.0803 31.6114 36.8728V41.6558C31.6114 42.4482 32.2539 43.0907 33.0463 43.0907ZM54.57 57.9181V62.2229H1V57.9181C1 57.1257 1.64248 56.4832 2.43491 56.4832H4.76664V11.1681C4.76664 9.77902 6.05148 8.65286 7.63646 8.65286H18.2189V3.86982C18.2189 2.28484 19.5038 1 21.0888 1H34.4813C36.0662 1 37.3511 2.28484 37.3511 3.86982V8.65286H47.9335C49.5185 8.65286 50.8034 9.77902 50.8034 11.1681V56.4832H53.1351C53.9275 56.4832 54.57 57.1257 54.57 57.9181ZM10.5063 56.3636H23.9586V48.3521C23.9586 47.5596 24.6011 46.9171 25.3935 46.9171H30.1765C30.9689 46.9171 31.6114 47.5596 31.6114 48.3521V56.3636H45.0637V14.3925H37.3511V17.2623C37.3511 18.8473 36.0662 20.1321 34.4813 20.1321H21.0888C19.5038 20.1321 18.2189 18.8473 18.2189 17.2623V14.3925H10.5063V56.3636ZM32.8072 8.65286H29.6982V5.54388C29.6982 5.3536 29.6226 5.17112 29.4881 5.03657C29.3535 4.90202 29.171 4.82643 28.9808 4.82643H26.5892C26.399 4.82643 26.2165 4.90202 26.0819 5.03657C25.9474 5.17112 25.8718 5.3536 25.8718 5.54388V8.65286H22.7628C22.5725 8.65286 22.39 8.72845 22.2555 8.863C22.1209 8.99755 22.0454 9.18003 22.0454 9.37031V11.7618C22.0454 11.9521 22.1209 12.1346 22.2555 12.2691C22.39 12.4037 22.5725 12.4793 22.7628 12.4793H25.8718V15.5883C25.8718 15.7785 25.9474 15.961 26.0819 16.0956C26.2165 16.2301 26.399 16.3057 26.5892 16.3057H28.9808C29.171 16.3057 29.3535 16.2301 29.4881 16.0956C29.6226 15.961 29.6982 15.7785 29.6982 15.5883V12.4793H32.8072C32.9975 12.4793 33.18 12.4037 33.3145 12.2691C33.4491 12.1346 33.5246 11.9521 33.5246 11.7618V9.37031C33.5246 9.18003 33.4491 8.99755 33.3145 8.863C33.18 8.72845 32.9975 8.65286 32.8072 8.65286Z" fill="#009CDE" stroke="white" stroke-width="2"/>
</svg>
