<svg width="24" height="28" viewBox="0 0 24 28" fill="none" xmlns="http://www.w3.org/2000/svg">
<path d="M24 26.3571V27.4286H0V26.3571C0 26.0021 0.287839 25.7143 0.642857 25.7143H1.71429V6.42857C1.71429 5.71848 2.28991 5.14286 3 5.14286H7.71429V1.28571C7.71429 0.575625 8.28991 0 9 0H15C15.7101 0 16.2857 0.575625 16.2857 1.28571V5.14286H21C21.7101 5.14286 22.2857 5.71848 22.2857 6.42857V25.7143H23.3571C23.7122 25.7143 24 26.0021 24 26.3571ZM16.5 10.2857H14.3571C14.0021 10.2857 13.7143 10.5736 13.7143 10.9286V13.0714C13.7143 13.4264 14.0021 13.7143 14.3571 13.7143H16.5C16.855 13.7143 17.1429 13.4264 17.1429 13.0714V10.9286C17.1429 10.5736 16.855 10.2857 16.5 10.2857ZM7.5 13.7143H9.64286C9.99788 13.7143 10.2857 13.4264 10.2857 13.0714V10.9286C10.2857 10.5736 9.99788 10.2857 9.64286 10.2857H7.5C7.14498 10.2857 6.85714 10.5736 6.85714 10.9286V13.0714C6.85714 13.4264 7.14498 13.7143 7.5 13.7143ZM13.0714 20.5714H10.9286C10.5736 20.5714 10.2857 20.8593 10.2857 21.2143V25.7143H13.7143V21.2143C13.7143 20.8593 13.4264 20.5714 13.0714 20.5714ZM16.5 15.4286H14.3571C14.0021 15.4286 13.7143 15.7164 13.7143 16.0714V18.2143C13.7143 18.5693 14.0021 18.8571 14.3571 18.8571H16.5C16.855 18.8571 17.1429 18.5693 17.1429 18.2143V16.0714C17.1429 15.7164 16.855 15.4286 16.5 15.4286ZM10.2857 16.0714C10.2857 15.7164 9.99788 15.4286 9.64286 15.4286H7.5C7.14498 15.4286 6.85714 15.7164 6.85714 16.0714V18.2143C6.85714 18.5693 7.14498 18.8571 7.5 18.8571H9.64286C9.99788 18.8571 10.2857 18.5693 10.2857 18.2143V16.0714ZM9.75 5.14286H11.1429V6.53571C11.1429 6.62096 11.1767 6.70272 11.237 6.763C11.2973 6.82328 11.379 6.85714 11.4643 6.85714H12.5357C12.621 6.85714 12.7027 6.82328 12.763 6.763C12.8233 6.70272 12.8571 6.62096 12.8571 6.53571V5.14286H14.25C14.3352 5.14286 14.417 5.10899 14.4773 5.04871C14.5376 4.98843 14.5714 4.90668 14.5714 4.82143V3.75C14.5714 3.66475 14.5376 3.583 14.4773 3.52272C14.417 3.46244 14.3352 3.42857 14.25 3.42857H12.8571V2.03571C12.8571 1.95047 12.8233 1.86871 12.763 1.80843C12.7027 1.74815 12.621 1.71429 12.5357 1.71429H11.4643C11.379 1.71429 11.2973 1.74815 11.237 1.80843C11.1767 1.86871 11.1429 1.95047 11.1429 2.03571V3.42857H9.75C9.66475 3.42857 9.583 3.46244 9.52272 3.52272C9.46244 3.583 9.42857 3.66475 9.42857 3.75V4.82143C9.42857 4.90668 9.46244 4.98843 9.52272 5.04871C9.583 5.10899 9.66475 5.14286 9.75 5.14286Z" fill="#333333"/>
</svg>
