<svg width="32" height="26" viewBox="0 0 32 26" fill="none" xmlns="http://www.w3.org/2000/svg">
<path d="M23.9999 16C24.9493 16 25.8773 15.7184 26.6667 15.191C27.456 14.6636 28.0712 13.9139 28.4345 13.0368C28.7978 12.1598 28.8929 11.1946 28.7077 10.2635C28.5225 9.33243 28.0653 8.47716 27.394 7.80587C26.7227 7.13458 25.8675 6.67742 24.9364 6.49221C24.0053 6.30701 23.0401 6.40206 22.1631 6.76536C21.286 7.12866 20.5363 7.74389 20.0089 8.53324C19.4815 9.32259 19.1999 10.2506 19.1999 11.2C19.1999 12.473 19.7057 13.6939 20.6058 14.5941C21.506 15.4942 22.7269 16 23.9999 16ZM26.3999 17.6C26.2801 17.5995 26.161 17.6179 26.0469 17.6545C24.721 18.1151 23.2784 18.1151 21.9524 17.6545C21.8385 17.6179 21.7196 17.5995 21.5999 17.6C20.8619 17.5999 20.1312 17.7458 19.4497 18.0292C18.7683 18.3125 18.1496 18.7278 17.6292 19.2511C17.1087 19.7744 16.6969 20.3954 16.4173 21.0784C16.1377 21.7614 15.9959 22.4929 16 23.2309C16.007 24.5439 17.0865 25.5999 18.4 25.5999H29.5999C30.9134 25.5999 31.9929 24.5439 31.9999 23.2309C32.004 22.4929 31.8622 21.7614 31.5826 21.0784C31.303 20.3954 30.8911 19.7744 30.3707 19.2511C29.8503 18.7278 29.2316 18.3125 28.5501 18.0292C27.8687 17.7458 27.1379 17.5999 26.3999 17.6ZM16.4955 18.1225C16.8336 17.7899 17.2036 17.4913 17.6 17.231V6.39998C17.6 5.97564 17.4314 5.56867 17.1313 5.26862C16.8313 4.96856 16.4243 4.79999 16 4.79999H14.4V1.6C14.4 1.17565 14.2314 0.768685 13.9313 0.468628C13.6313 0.168571 13.2243 0 12.8 0L4.79999 0C4.37564 0 3.96868 0.168571 3.66862 0.468628C3.36856 0.768685 3.19999 1.17565 3.19999 1.6V4.79999H1.6C1.17565 4.79999 0.768685 4.96856 0.468628 5.26862C0.168571 5.56867 0 5.97564 0 6.39998L0 24.7999C0 25.0121 0.0842853 25.2156 0.234314 25.3656C0.384343 25.5156 0.587825 25.5999 0.799998 25.5999H15.2155C14.6943 24.9227 14.408 24.094 14.4 23.2394C14.3922 22.2901 14.5735 21.3488 14.9333 20.4703C15.293 19.5918 15.8241 18.7936 16.4955 18.1225ZM7.19998 20.1999C7.19998 20.3591 7.13677 20.5117 7.02425 20.6242C6.91172 20.7367 6.75911 20.7999 6.59998 20.7999H4.59999C4.44086 20.7999 4.28825 20.7367 4.17572 20.6242C4.0632 20.5117 3.99999 20.3591 3.99999 20.1999V18.2C3.99999 18.0408 4.0632 17.8882 4.17572 17.7757C4.28825 17.6632 4.44086 17.6 4.59999 17.6H6.59998C6.75911 17.6 6.91172 17.6632 7.02425 17.7757C7.13677 17.8882 7.19998 18.0408 7.19998 18.2V20.1999ZM7.19998 13.8C7.19998 13.9591 7.13677 14.1117 7.02425 14.2242C6.91172 14.3367 6.75911 14.4 6.59998 14.4H4.59999C4.44086 14.4 4.28825 14.3367 4.17572 14.2242C4.0632 14.1117 3.99999 13.9591 3.99999 13.8V11.8C3.99999 11.6408 4.0632 11.4882 4.17572 11.3757C4.28825 11.2632 4.44086 11.2 4.59999 11.2H6.59998C6.75911 11.2 6.91172 11.2632 7.02425 11.3757C7.13677 11.4882 7.19998 11.6408 7.19998 11.8V13.8ZM9.59997 7.69998C9.59997 7.77954 9.56837 7.85585 9.51211 7.91211C9.45585 7.96837 9.37954 7.99998 9.29998 7.99998H8.29998C8.22041 7.99998 8.14411 7.96837 8.08785 7.91211C8.03159 7.85585 7.99998 7.77954 7.99998 7.69998V6.39998H6.69998C6.62042 6.39998 6.54411 6.36838 6.48785 6.31212C6.43159 6.25585 6.39998 6.17955 6.39998 6.09998V5.09999C6.39998 5.02042 6.43159 4.94412 6.48785 4.88786C6.54411 4.83159 6.62042 4.79999 6.69998 4.79999H7.99998V3.49999C7.99998 3.42043 8.03159 3.34412 8.08785 3.28786C8.14411 3.2316 8.22041 3.19999 8.29998 3.19999H9.29998C9.37954 3.19999 9.45585 3.2316 9.51211 3.28786C9.56837 3.34412 9.59997 3.42043 9.59997 3.49999V4.79999H10.9C10.9795 4.79999 11.0558 4.83159 11.1121 4.88786C11.1684 4.94412 11.2 5.02042 11.2 5.09999V6.09998C11.2 6.17955 11.1684 6.25585 11.1121 6.31212C11.0558 6.36838 10.9795 6.39998 10.9 6.39998H9.59997V7.69998ZM13.6 20.1999C13.6 20.3591 13.5367 20.5117 13.4242 20.6242C13.3117 20.7367 13.1591 20.7999 13 20.7999H11C10.8408 20.7999 10.6882 20.7367 10.5757 20.6242C10.4632 20.5117 10.4 20.3591 10.4 20.1999V18.2C10.4 18.0408 10.4632 17.8882 10.5757 17.7757C10.6882 17.6632 10.8408 17.6 11 17.6H13C13.1591 17.6 13.3117 17.6632 13.4242 17.7757C13.5367 17.8882 13.6 18.0408 13.6 18.2V20.1999ZM13.6 13.8C13.6 13.9591 13.5367 14.1117 13.4242 14.2242C13.3117 14.3367 13.1591 14.4 13 14.4H11C10.8408 14.4 10.6882 14.3367 10.5757 14.2242C10.4632 14.1117 10.4 13.9591 10.4 13.8V11.8C10.4 11.6408 10.4632 11.4882 10.5757 11.3757C10.6882 11.2632 10.8408 11.2 11 11.2H13C13.1591 11.2 13.3117 11.2632 13.4242 11.3757C13.5367 11.4882 13.6 11.6408 13.6 11.8V13.8Z" fill="#333333"/>
</svg>
