<svg width="26" height="30" viewBox="0 0 26 30" fill="none" xmlns="http://www.w3.org/2000/svg">
<path d="M18.5372 18.5717L13 24.1077L7.46281 18.5717C3.31384 18.7516 0 22.1467 0 26.3363C0 27.2322 0.355923 28.0915 0.989469 28.7251C1.62302 29.3586 2.48229 29.7145 3.37826 29.7145H22.6217C23.5177 29.7145 24.377 29.3586 25.0105 28.7251C25.6441 28.0915 26 27.2322 26 26.3363C26 22.1467 22.6862 18.7516 18.5372 18.5717ZM13 17.6431C14.9702 17.6431 16.8597 16.8605 18.2528 15.4673C19.6459 14.0742 20.4286 12.1847 20.4286 10.2145V3.82016C20.429 3.44176 20.3139 3.07226 20.0986 2.76111C19.8833 2.44995 19.578 2.21199 19.2237 2.07908L14.3041 0.23645C13.4633 -0.0788167 12.5367 -0.0788167 11.6959 0.23645L6.77625 2.08141C6.42234 2.21418 6.11737 2.45178 5.90208 2.76247C5.6868 3.07317 5.57144 3.44216 5.57143 3.82016V10.2145C5.57143 12.1847 6.35408 14.0742 7.74721 15.4673C9.14033 16.8605 11.0298 17.6431 13 17.6431ZM10.6786 4.15966C10.6786 4.0827 10.7091 4.0089 10.7636 3.95448C10.818 3.90006 10.8918 3.86949 10.9688 3.86949H12.2264V2.61185C12.2264 2.53489 12.257 2.46108 12.3114 2.40666C12.3658 2.35225 12.4396 2.32167 12.5166 2.32167H13.4834C13.5604 2.32167 13.6342 2.35225 13.6886 2.40666C13.743 2.46108 13.7736 2.53489 13.7736 2.61185V3.86949H15.0312C15.1082 3.86949 15.182 3.90006 15.2364 3.95448C15.2909 4.0089 15.3214 4.0827 15.3214 4.15966V5.12654C15.3214 5.2035 15.2909 5.27731 15.2364 5.33173C15.182 5.38615 15.1082 5.41672 15.0312 5.41672H13.7736V6.67435C13.7736 6.75131 13.743 6.82512 13.6886 6.87954C13.6342 6.93396 13.5604 6.96453 13.4834 6.96453H12.5166C12.4396 6.96453 12.3658 6.93396 12.3114 6.87954C12.257 6.82512 12.2264 6.75131 12.2264 6.67435V5.41672H10.9688C10.8918 5.41672 10.818 5.38615 10.7636 5.33173C10.7091 5.27731 10.6786 5.2035 10.6786 5.12654V4.15966ZM8.35714 9.28596H17.6429V10.2145C17.6429 11.4459 17.1537 12.6268 16.283 13.4975C15.4123 14.3682 14.2314 14.8574 13 14.8574C11.7686 14.8574 10.5877 14.3682 9.717 13.4975C8.8463 12.6268 8.35714 11.4459 8.35714 10.2145V9.28596Z" fill="#333333"/>
</svg>
