<svg width="229" height="26" viewBox="0 0 229 26" fill="none" xmlns="http://www.w3.org/2000/svg">
<path d="M0.146484 25.0728H13.3222V22.5539H2.85913V2.20906H0.146484V25.0728Z" fill="#333333"/>
<path d="M16.0671 25.0728H18.586V9.95946H16.0671V25.0728ZM15.4858 4.04978C15.4858 5.11546 16.2609 5.8905 17.3266 5.8905C18.3922 5.8905 19.1673 5.11546 19.1673 4.04978C19.1673 3.04868 18.3599 2.20906 17.3266 2.20906C16.2932 2.20906 15.4858 3.04868 15.4858 4.04978Z" fill="#333333"/>
<path d="M23.599 25.0728H26.1179V17.7099C26.1179 14.2545 27.5388 11.8971 30.8005 11.8971C33.1579 11.8971 34.2558 13.4794 34.2558 15.9983V25.0728H36.7747V15.74C36.7747 12.0908 34.9986 9.57194 31.0265 9.57194C28.5399 9.57194 26.6669 10.9606 25.9887 12.4461H25.9242C25.9242 11.6064 25.8596 10.7668 25.8596 9.95946H23.4699C23.4699 10.9606 23.599 12.1554 23.599 13.544V25.0728Z" fill="#333333"/>
<path d="M41.5433 25.0728H44.0622V17.1286L51.5542 25.0728H55.268L47.2269 16.8379L54.5252 9.95946H50.9407L44.0622 16.6119V0.658973H41.5433V25.0728Z" fill="#333333"/>
<path d="M57.6254 25.0728H62.6632V15.191H72.4481V25.0728H77.4858V2.20906H72.4481V10.7345H62.6632V2.20906H57.6254V25.0728Z" fill="#333333"/>
<path d="M92.9798 19.8735C92.1725 20.9715 91.1068 21.7788 89.5244 21.7788C87.6514 21.7788 86.2628 20.584 85.8753 18.7433H97.1134V17.2255C97.1134 12.22 94.2716 8.99066 89.7505 8.99066C84.9065 8.99066 81.0313 12.22 81.0313 17.2255C81.0313 22.2309 84.9065 25.4603 89.7505 25.4603C92.2694 25.4603 94.8205 24.33 96.3706 22.3601L92.9798 19.8735ZM85.8753 15.4493C86.0045 13.9315 87.167 12.4783 89.2984 12.4783C91.0422 12.4783 92.3017 13.8347 92.2694 15.4493H85.8753Z" fill="#333333"/>
<path d="M109.909 25.0728H114.365V17.0963C114.365 11.8648 112.847 8.99066 107.196 8.99066C104.645 8.99066 102.061 9.83029 100.285 11.5095L102.869 14.1576C103.902 12.995 105.226 12.2846 106.808 12.2846C108.488 12.2846 109.909 13.3826 109.909 15.0941C105.872 15.0941 99.2841 15.191 99.2841 20.6163C99.2841 23.781 101.932 25.4603 104.871 25.4603C106.841 25.4603 108.778 24.7821 109.844 23.1029H109.909V25.0728ZM109.909 18.1943V19.2277C109.909 21.1653 108.132 22.1664 106.227 22.1664C105.161 22.1664 103.934 21.6174 103.934 20.4548C103.934 18.3234 107.228 18.1943 108.714 18.1943H109.909Z" fill="#333333"/>
<path d="M117.469 25.0728H122.313V0.658973H117.469V25.0728Z" fill="#333333"/>
<path d="M136.482 9.37818H132.219V4.72794H127.375V9.37818H124.275V13.2534H127.375V20.7132C127.375 24.1363 129.862 25.4603 133.091 25.4603C134.221 25.4603 135.416 25.3634 136.482 24.9759V20.9392C136.062 21.3267 135.029 21.3913 134.512 21.3913C132.413 21.3913 132.219 20.1642 132.219 18.4849V13.2534H136.482V9.37818Z" fill="#333333"/>
<path d="M138.944 0.658973V25.0728H143.788V17.2578C143.788 15.2233 144.175 13.2534 146.694 13.2534C149.181 13.2534 149.213 15.5785 149.213 17.3869V25.0728H154.057V16.4181C154.057 12.22 153.153 8.99066 148.244 8.99066C145.887 8.99066 144.304 10.2824 143.852 11.5095H143.788V0.658973H138.944Z" fill="#333333"/>
<path d="M172.859 4.01748C170.921 2.30593 168.435 1.62778 165.851 1.62778C161.362 1.62778 157.132 4.17895 157.132 9.05525C157.132 16.6765 167.853 14.4159 167.853 18.6141C167.853 20.2288 166.013 21.0038 164.366 21.0038C162.686 21.0038 161.007 20.1965 159.974 18.8401L156.389 22.7799C158.553 24.7821 161.136 25.654 164.075 25.654C168.79 25.654 172.891 23.232 172.891 18.1297C172.891 10.1209 162.363 12.8013 162.363 8.63544C162.363 6.92389 164.333 6.27802 165.754 6.27802C166.981 6.27802 168.596 6.76242 169.403 7.79581L172.859 4.01748Z" fill="#333333"/>
<path d="M186.72 9.37818H182.457V4.72794H177.613V9.37818H174.513V13.2534H177.613V20.7132C177.613 24.1363 180.1 25.4603 183.329 25.4603C184.459 25.4603 185.654 25.3634 186.72 24.9759V20.9392C186.3 21.3267 185.266 21.3913 184.75 21.3913C182.651 21.3913 182.457 20.1642 182.457 18.4849V13.2534H186.72V9.37818Z" fill="#333333"/>
<path d="M199.031 25.0728H203.487V17.0963C203.487 11.8648 201.969 8.99066 196.318 8.99066C193.767 8.99066 191.183 9.83029 189.407 11.5095L191.991 14.1576C193.024 12.995 194.348 12.2846 195.931 12.2846C197.61 12.2846 199.031 13.3826 199.031 15.0941C194.994 15.0941 188.406 15.191 188.406 20.6163C188.406 23.781 191.054 25.4603 193.993 25.4603C195.963 25.4603 197.9 24.7821 198.966 23.1029H199.031V25.0728ZM199.031 18.1943V19.2277C199.031 21.1653 197.255 22.1664 195.349 22.1664C194.284 22.1664 193.056 21.6174 193.056 20.4548C193.056 18.3234 196.35 18.1943 197.836 18.1943H199.031Z" fill="#333333"/>
<path d="M208.206 25.0728H213.05V13.2534H216.634V9.37818H213.05V6.89159C213.05 4.82482 213.825 4.34042 215.375 4.34042C215.956 4.34042 216.408 4.46959 216.957 4.66335L217.183 0.562092C216.279 0.33604 215.31 0.271454 214.341 0.271454C209.078 0.271454 208.206 3.17786 208.206 6.60095V9.37818H205.009V13.2534H208.206V25.0728Z" fill="#333333"/>
<path d="M219.59 25.0728H224.434V13.2534H228.019V9.37818H224.434V6.89159C224.434 4.82482 225.209 4.34042 226.759 4.34042C227.341 4.34042 227.793 4.46959 228.342 4.66335L228.568 0.562092C227.664 0.33604 226.695 0.271454 225.726 0.271454C220.462 0.271454 219.59 3.17786 219.59 6.60095V9.37818H216.393V13.2534H219.59V25.0728Z" fill="#333333"/>
</svg>
