<svg width="51" height="63" viewBox="0 0 51 63" fill="none" xmlns="http://www.w3.org/2000/svg">
<path d="M6.27023 62.7023H43.8916C44.4496 62.7023 44.9826 62.6082 45.4968 62.4703L33.7119 50.6854C31.1555 52.3882 28.1525 53.2969 25.0809 53.2969C16.4374 53.2969 9.40534 46.2649 9.40534 37.6214C9.40534 28.9779 16.4374 21.9458 25.0809 21.9458C33.7244 21.9458 40.7565 28.9779 40.7565 37.6214C40.7568 40.693 39.8481 43.6961 38.1449 46.2523L49.9298 58.0372C50.0678 57.5231 50.1618 56.9901 50.1618 56.432V18.8107L31.3511 0H6.27023C4.60726 0 3.0124 0.660611 1.83651 1.83651C0.660611 3.0124 0 4.60726 0 6.27023V56.432C0 58.095 0.660611 59.6899 1.83651 60.8658C3.0124 62.0417 4.60726 62.7023 6.27023 62.7023Z" fill="white"/>
<path d="M25.0809 47.0267C30.2753 47.0267 34.4862 42.8158 34.4862 37.6214C34.4862 32.427 30.2753 28.2161 25.0809 28.2161C19.8865 28.2161 15.6756 32.427 15.6756 37.6214C15.6756 42.8158 19.8865 47.0267 25.0809 47.0267Z" fill="white"/>
</svg>
