<svg width="30" height="24" viewBox="0 0 30 24" fill="none" xmlns="http://www.w3.org/2000/svg">
<path d="M0 3C0 2.20435 0.31607 1.44129 0.87868 0.87868C1.44129 0.31607 2.20435 0 3 0H27C27.7956 0 28.5587 0.31607 29.1213 0.87868C29.6839 1.44129 30 2.20435 30 3V21C30 21.7956 29.6839 22.5587 29.1213 23.1213C28.5587 23.6839 27.7956 24 27 24H3C2.20435 24 1.44129 23.6839 0.87868 23.1213C0.31607 22.5587 0 21.7956 0 21V3ZM5.2785 3L15 11.5065L24.7215 3H5.28H5.2785ZM27 4.9935L15.9885 14.6295C15.715 14.8692 15.3637 15.0013 15 15.0013C14.6363 15.0013 14.285 14.8692 14.0115 14.6295L3 4.9935V21H27V4.9935Z" fill="#333333"/>
</svg>
