<svg width="52" height="52" viewBox="0 0 52 52" fill="none" xmlns="http://www.w3.org/2000/svg">
<path d="M10.622 0C5.09518 0 0.571838 4.52324 0.571838 10.0501V41.2374C0.571838 46.7642 5.09508 51.2859 10.622 51.2859H41.8093C47.3361 51.2859 51.8577 46.7643 51.8577 41.2374V10.0501C51.8577 4.52334 47.3361 0 41.8093 0H10.622ZM13.1497 8.46321C15.7997 8.46321 17.432 10.2029 17.4823 12.4896C17.4823 14.7259 15.7996 16.5145 13.0985 16.5145H13.0487C10.4492 16.5145 8.76901 14.726 8.76901 12.4896C8.76901 10.2029 10.5001 8.46321 13.1497 8.46321H13.1497ZM35.986 19.1512C41.0824 19.1512 44.9029 22.4823 44.9029 29.6405V43.0037H37.1578V30.5365C37.1578 27.4036 36.0368 25.2662 33.2339 25.2662C31.0941 25.2662 29.8187 26.7068 29.2587 28.0985C29.0542 28.5964 29.0039 29.2918 29.0039 29.9883V43.0037H21.2587C21.2587 43.0037 21.3604 21.8845 21.2587 19.6978H29.0055V22.9981C30.0347 21.4101 31.8758 19.1512 35.986 19.1512V19.1512ZM9.22586 19.6995H16.971V43.0038H9.22586V19.6995Z" fill="#009CDE"/>
</svg>
