<svg width="53" height="52" viewBox="0 0 53 52" fill="none" xmlns="http://www.w3.org/2000/svg">
<path d="M26.5007 0C33.4679 0 34.3372 0.0256428 37.0707 0.153858C39.8017 0.282072 41.6608 0.71031 43.2968 1.34626C44.9893 1.99759 46.415 2.8797 47.8408 4.30289C49.1447 5.58477 50.1536 7.13538 50.7974 8.84682C51.4308 10.4803 51.8616 12.342 51.9898 15.0729C52.1103 17.8065 52.1436 18.6758 52.1436 25.643C52.1436 32.6101 52.118 33.4794 51.9898 36.213C51.8616 38.944 51.4308 40.8031 50.7974 42.4391C50.1555 44.1515 49.1463 45.7025 47.8408 46.983C46.5585 48.2865 45.008 49.2954 43.2968 49.9397C41.6634 50.573 39.8017 51.0038 37.0707 51.1321C34.3372 51.2526 33.4679 51.2859 26.5007 51.2859C19.5335 51.2859 18.6642 51.2603 15.9307 51.1321C13.1997 51.0038 11.3406 50.573 9.70455 49.9397C7.99243 49.2972 6.44155 48.2881 5.16061 46.983C3.85643 45.7014 2.84744 44.1507 2.20398 42.4391C1.56804 40.8056 1.1398 38.944 1.01158 36.213C0.891063 33.4794 0.857727 32.6101 0.857727 25.643C0.857727 18.6758 0.88337 17.8065 1.01158 15.0729C1.1398 12.3394 1.56804 10.4828 2.20398 8.84682C2.84566 7.13433 3.85488 5.58329 5.16061 4.30289C6.44192 2.99825 7.9927 1.9892 9.70455 1.34626C11.3406 0.71031 13.1971 0.282072 15.9307 0.153858C18.6642 0.0333357 19.5335 0 26.5007 0ZM26.5007 12.8215C23.1002 12.8215 19.839 14.1723 17.4345 16.5768C15.03 18.9813 13.6792 22.2425 13.6792 25.643C13.6792 29.0434 15.03 32.3046 17.4345 34.7091C19.839 37.1136 23.1002 38.4644 26.5007 38.4644C29.9011 38.4644 33.1623 37.1136 35.5668 34.7091C37.9713 32.3046 39.3222 29.0434 39.3222 25.643C39.3222 22.2425 37.9713 18.9813 35.5668 16.5768C33.1623 14.1723 29.9011 12.8215 26.5007 12.8215ZM43.1686 12.1804C43.1686 11.3303 42.8309 10.515 42.2298 9.91387C41.6287 9.31274 40.8134 8.97503 39.9632 8.97503C39.1131 8.97503 38.2978 9.31274 37.6967 9.91387C37.0956 10.515 36.7579 11.3303 36.7579 12.1804C36.7579 13.0305 37.0956 13.8458 37.6967 14.4469C38.2978 15.0481 39.1131 15.3858 39.9632 15.3858C40.8134 15.3858 41.6287 15.0481 42.2298 14.4469C42.8309 13.8458 43.1686 13.0305 43.1686 12.1804ZM26.5007 17.9501C28.541 17.9501 30.4977 18.7606 31.9404 20.2033C33.3831 21.646 34.1936 23.6027 34.1936 25.643C34.1936 27.6832 33.3831 29.64 31.9404 31.0826C30.4977 32.5253 28.541 33.3358 26.5007 33.3358C24.4604 33.3358 22.5037 32.5253 21.061 31.0826C19.6183 29.64 18.8078 27.6832 18.8078 25.643C18.8078 23.6027 19.6183 21.646 21.061 20.2033C22.5037 18.7606 24.4604 17.9501 26.5007 17.9501Z" fill="#009CDE"/>
</svg>
