<svg width="52" height="52" viewBox="0 0 52 52" fill="none" xmlns="http://www.w3.org/2000/svg">
<path d="M9.3645 0C4.17698 0 0 4.17698 0 9.3645V41.9215C0 47.109 4.17698 51.286 9.3645 51.286H27.0101V31.2364H21.7084V24.0179H27.0101V17.8507C27.0101 13.0055 30.1426 8.55675 37.3586 8.55675C40.2803 8.55675 42.4407 8.83723 42.4407 8.83723L42.2708 15.5781C42.2708 15.5781 40.0674 15.5573 37.6631 15.5573C35.0609 15.5573 34.6436 16.7563 34.6436 18.7467V24.0179H42.4776L42.1362 31.2364H34.6436V51.286H41.9214C47.1089 51.286 51.2859 47.109 51.2859 41.9215V9.36455C51.2859 4.17703 47.1089 5.12859e-05 41.9214 5.12859e-05H9.36445L9.3645 0Z" fill="#009CDE"/>
</svg>
