<svg width="71" height="57" viewBox="0 0 71 57" fill="none" xmlns="http://www.w3.org/2000/svg">
<path d="M53.5501 21.1403H36.8714V27.2851C36.8714 31.6413 33.3271 35.1855 28.9709 35.1855C24.6147 35.1855 21.0704 31.6413 21.0704 27.2851V13.942L13.949 18.2215C11.8313 19.4834 10.5365 21.7767 10.5365 24.2346V29.4248L1.75816 34.4942C0.0793128 35.4599 -0.50225 37.6105 0.474336 39.2894L9.25264 54.4978C10.2183 56.1767 12.3689 56.7472 14.0478 55.7816L25.3937 49.2308H40.3827C44.2561 49.2308 47.4053 46.0816 47.4053 42.2082H49.161C51.1032 42.2082 52.6723 40.6391 52.6723 38.6969V31.6742H53.5501C55.0095 31.6742 56.1836 30.5001 56.1836 29.0407V23.7737C56.1836 22.3144 55.0095 21.1403 53.5501 21.1403ZM69.7571 17.0364L60.9788 1.82799C60.0132 0.149143 57.8625 -0.421446 56.1836 0.544167L44.8377 7.09497H33.6234C32.3067 7.09497 31.0228 7.46805 29.9036 8.15934L26.2277 10.4527C25.1962 11.0891 24.5817 12.2193 24.5817 13.4263V27.2851C24.5817 29.7101 26.5459 31.6742 28.9709 31.6742C31.3959 31.6742 33.36 29.7101 33.36 27.2851V17.6289H53.5501C56.9408 17.6289 59.695 20.3831 59.695 23.7737V26.901L68.4733 21.8315C70.1521 20.855 70.7227 18.7153 69.7571 17.0364Z" fill="white"/>
</svg>
