<svg width="51" height="63" viewBox="0 0 51 63" fill="none" xmlns="http://www.w3.org/2000/svg">
<path d="M25.0809 18.8107V0H6.27023C4.60726 0 3.0124 0.660611 1.83651 1.83651C0.660611 3.0124 0 4.60726 0 6.27023V56.432C0 58.095 0.660611 59.6899 1.83651 60.8658C3.0124 62.0417 4.60726 62.7023 6.27023 62.7023H43.8916C45.5546 62.7023 47.1494 62.0417 48.3253 60.8658C49.5012 59.6899 50.1618 58.095 50.1618 56.432V25.0809H31.3511C29.6882 25.0809 28.0933 24.4203 26.9174 23.2444C25.7415 22.0685 25.0809 20.4736 25.0809 18.8107ZM9.40534 32.1349C9.40534 31.5113 9.65307 30.9132 10.094 30.4723C10.535 30.0313 11.1331 29.7836 11.7567 29.7836C12.3803 29.7836 12.9784 30.0313 13.4193 30.4723C13.8603 30.9132 14.108 31.5113 14.108 32.1349C14.108 32.7585 13.8603 33.3566 13.4193 33.7976C12.9784 34.2385 12.3803 34.4862 11.7567 34.4862C11.1331 34.4862 10.535 34.2385 10.094 33.7976C9.65307 33.3566 9.40534 32.7585 9.40534 32.1349ZM9.40534 41.5403C9.40534 40.9166 9.65307 40.3186 10.094 39.8776C10.535 39.4366 11.1331 39.1889 11.7567 39.1889C12.3803 39.1889 12.9784 39.4366 13.4193 39.8776C13.8603 40.3186 14.108 40.9166 14.108 41.5403C14.108 42.1639 13.8603 42.7619 13.4193 43.2029C12.9784 43.6439 12.3803 43.8916 11.7567 43.8916C11.1331 43.8916 10.535 43.6439 10.094 43.2029C9.65307 42.7619 9.40534 42.1639 9.40534 41.5403ZM9.40534 50.9456C9.40534 50.322 9.65307 49.7239 10.094 49.2829C10.535 48.842 11.1331 48.5943 11.7567 48.5943C12.3803 48.5943 12.9784 48.842 13.4193 49.2829C13.8603 49.7239 14.108 50.322 14.108 50.9456C14.108 51.5692 13.8603 52.1673 13.4193 52.6082C12.9784 53.0492 12.3803 53.2969 11.7567 53.2969C11.1331 53.2969 10.535 53.0492 10.094 52.6082C9.65307 52.1673 9.40534 51.5692 9.40534 50.9456ZM18.8107 32.1349C18.8107 31.5113 19.0584 30.9132 19.4994 30.4723C19.9403 30.0313 20.5384 29.7836 21.162 29.7836H38.4051C39.0288 29.7836 39.6268 30.0313 40.0678 30.4723C40.5087 30.9132 40.7565 31.5113 40.7565 32.1349C40.7565 32.7585 40.5087 33.3566 40.0678 33.7976C39.6268 34.2385 39.0288 34.4862 38.4051 34.4862H21.162C20.5384 34.4862 19.9403 34.2385 19.4994 33.7976C19.0584 33.3566 18.8107 32.7585 18.8107 32.1349ZM18.8107 41.5403C18.8107 40.9166 19.0584 40.3186 19.4994 39.8776C19.9403 39.4366 20.5384 39.1889 21.162 39.1889H38.4051C39.0288 39.1889 39.6268 39.4366 40.0678 39.8776C40.5087 40.3186 40.7565 40.9166 40.7565 41.5403C40.7565 42.1639 40.5087 42.7619 40.0678 43.2029C39.6268 43.6439 39.0288 43.8916 38.4051 43.8916H21.162C20.5384 43.8916 19.9403 43.6439 19.4994 43.2029C19.0584 42.7619 18.8107 42.1639 18.8107 41.5403ZM18.8107 50.9456C18.8107 50.322 19.0584 49.7239 19.4994 49.2829C19.9403 48.842 20.5384 48.5943 21.162 48.5943H38.4051C39.0288 48.5943 39.6268 48.842 40.0678 49.2829C40.5087 49.7239 40.7565 50.322 40.7565 50.9456C40.7565 51.5692 40.5087 52.1673 40.0678 52.6082C39.6268 53.0492 39.0288 53.2969 38.4051 53.2969H21.162C20.5384 53.2969 19.9403 53.0492 19.4994 52.6082C19.0584 52.1673 18.8107 51.5692 18.8107 50.9456ZM29.7836 18.8107V1.56756L48.5943 20.3782H31.3511C30.9354 20.3782 30.5367 20.2131 30.2427 19.9191C29.9487 19.6251 29.7836 19.2264 29.7836 18.8107Z" fill="white"/>
</svg>
