<svg width="52" height="52" viewBox="0 0 52 52" fill="none" xmlns="http://www.w3.org/2000/svg">
<path d="M46.0769 0H5.78084C2.74718 0 0.285919 2.46127 0.285919 5.49492V45.791C0.285919 48.8246 2.74718 51.2859 5.78084 51.2859H46.0769C49.1106 51.2859 51.5718 48.8246 51.5718 45.791V5.49492C51.5718 2.46127 49.1106 0 46.0769 0ZM40.479 18.179C40.5019 18.4996 40.5019 18.8315 40.5019 19.1521C40.5019 29.0773 32.9463 40.5136 19.1404 40.5136C14.8818 40.5136 10.9323 39.2772 7.61248 37.1479C8.21921 37.2166 8.80304 37.2395 9.42122 37.2395C12.9357 37.2395 16.1639 36.049 18.7397 34.0342C15.4427 33.9655 12.6724 31.8018 11.7222 28.8254C12.8784 28.9971 13.9202 28.9971 15.1108 28.6881C11.6764 27.9897 9.10069 24.9675 9.10069 21.3157V21.2241C10.0966 21.7851 11.2643 22.1285 12.4892 22.1743C11.4594 21.4893 10.6152 20.56 10.0319 19.4694C9.44865 18.3787 9.14445 17.1606 9.14648 15.9238C9.14648 14.5272 9.5128 13.245 10.1653 12.1346C13.8629 16.6908 19.4151 19.6672 25.6427 19.9878C24.578 14.8935 28.3901 10.7609 32.9692 10.7609C35.1329 10.7609 37.079 11.6653 38.4527 13.1306C40.147 12.81 41.7726 12.1804 43.215 11.3218C42.654 13.0619 41.4749 14.5272 39.918 15.4545C41.4291 15.2942 42.8944 14.8706 44.2453 14.2868C43.2264 15.7864 41.9443 17.1144 40.479 18.179Z" fill="#009CDE"/>
</svg>
