<svg width="24" height="38" viewBox="0 0 24 38" fill="none" xmlns="http://www.w3.org/2000/svg">
<path d="M21.3333 0H2.66667C1.95942 0 1.28115 0.280951 0.781049 0.781048C0.280952 1.28115 0 1.95942 0 2.66667V34.6667C0 35.3739 0.280952 36.0522 0.781049 36.5523C1.28115 37.0524 1.95942 37.3333 2.66667 37.3333H21.3333C22.0406 37.3333 22.7189 37.0524 23.219 36.5523C23.719 36.0522 24 35.3739 24 34.6667V2.66667C24 1.95942 23.719 1.28115 23.219 0.781048C22.7189 0.280951 22.0406 0 21.3333 0ZM13.3333 34.6667H10.6667V32H13.3333V34.6667ZM2.66667 29.3333V2.66667H21.3333V29.3333H2.66667Z" fill="#333333"/>
</svg>
