<svg width="18" height="16" viewBox="0 0 18 16" fill="none" xmlns="http://www.w3.org/2000/svg">
<path d="M18 14.875C18 15.1734 17.8815 15.4595 17.6705 15.6705C17.4595 15.8815 17.1734 16 16.875 16L1.125 16C0.826632 16 0.540482 15.8815 0.329504 15.6705C0.118527 15.4595 7.22664e-08 15.1734 9.83506e-08 14.875C1.24435e-07 14.5766 0.118527 14.2905 0.329504 14.0795C0.540482 13.8685 0.826632 13.75 1.125 13.75L16.875 13.75C17.1734 13.75 17.4595 13.8685 17.6705 14.0795C17.8815 14.2905 18 14.5766 18 14.875Z" fill="#333333"/>
<path d="M18 1.375C18 1.67337 17.8815 1.95952 17.6705 2.1705C17.4595 2.38147 17.1734 2.5 16.875 2.5L1.125 2.5C0.826632 2.5 0.540482 2.38147 0.329504 2.17049C0.118527 1.95952 7.22664e-08 1.67337 9.83506e-08 1.375C1.24435e-07 1.07663 0.118527 0.790481 0.329504 0.579502C0.540482 0.368524 0.826632 0.249998 1.125 0.249999L16.875 0.25C17.1734 0.25 17.4595 0.368525 17.6705 0.579504C17.8815 0.790482 18 1.07663 18 1.375Z" fill="#333333"/>
<path d="M16.875 9.25C17.1734 9.25 17.4595 9.13147 17.6705 8.92049C17.8815 8.70952 18 8.42337 18 8.125C18 7.82663 17.8815 7.54048 17.6705 7.32951C17.4595 7.11853 17.1734 7 16.875 7L7.875 7C7.57663 7 7.29048 7.11853 7.07951 7.3295C6.86853 7.54048 6.75 7.82663 6.75 8.125C6.75 8.42337 6.86853 8.70952 7.0795 8.92049C7.29048 9.13147 7.57663 9.25 7.875 9.25L16.875 9.25Z" fill="#333333"/>
</svg>
